<mxfile host="app.diagrams.net" modified="2023-04-27T14:09:12.948Z" agent="Mozilla/5.0 (Macintosh; Intel Mac OS X 10_15_7) AppleWebKit/537.36 (KHTML, like Gecko) Chrome/112.0.0.0 Safari/537.36" etag="c1aG8xVcRrMOLLMH8YYL" version="21.2.1" type="github">
  <diagram name="Page-1" id="2YBvvXClWsGukQMizWep">
    <mxGraphModel dx="1202" dy="660" grid="1" gridSize="10" guides="1" tooltips="1" connect="1" arrows="1" fold="1" page="1" pageScale="1" pageWidth="850" pageHeight="1100" math="0" shadow="0">
      <root>
        <mxCell id="0" />
        <mxCell id="1" parent="0" />
        <mxCell id="aM9ryv3xv72pqoxQDRHE-1" value="API@SAP &lt;br&gt;User" style="shape=umlLifeline;perimeter=lifelinePerimeter;whiteSpace=wrap;html=1;container=0;dropTarget=0;collapsible=0;recursiveResize=0;outlineConnect=0;portConstraint=eastwest;newEdgeStyle={&quot;edgeStyle&quot;:&quot;elbowEdgeStyle&quot;,&quot;elbow&quot;:&quot;vertical&quot;,&quot;curved&quot;:0,&quot;rounded&quot;:0};" parent="1" vertex="1">
          <mxGeometry x="40" y="119" width="100" height="720" as="geometry" />
        </mxCell>
        <mxCell id="aM9ryv3xv72pqoxQDRHE-2" value="" style="html=1;points=[];perimeter=orthogonalPerimeter;outlineConnect=0;targetShapes=umlLifeline;portConstraint=eastwest;newEdgeStyle={&quot;edgeStyle&quot;:&quot;elbowEdgeStyle&quot;,&quot;elbow&quot;:&quot;vertical&quot;,&quot;curved&quot;:0,&quot;rounded&quot;:0};" parent="aM9ryv3xv72pqoxQDRHE-1" vertex="1">
          <mxGeometry x="45" y="70" width="10" height="610" as="geometry" />
        </mxCell>
        <mxCell id="aM9ryv3xv72pqoxQDRHE-3" value="Subscribe" style="html=1;verticalAlign=bottom;startArrow=oval;endArrow=block;startSize=8;edgeStyle=elbowEdgeStyle;elbow=vertical;curved=0;rounded=0;" parent="aM9ryv3xv72pqoxQDRHE-1" target="aM9ryv3xv72pqoxQDRHE-2" edge="1">
          <mxGeometry relative="1" as="geometry">
            <mxPoint x="-15" y="70" as="sourcePoint" />
          </mxGeometry>
        </mxCell>
        <mxCell id="aM9ryv3xv72pqoxQDRHE-5" value="API@SAP&lt;br&gt;APP" style="shape=umlLifeline;perimeter=lifelinePerimeter;whiteSpace=wrap;html=1;container=0;dropTarget=0;collapsible=0;recursiveResize=0;outlineConnect=0;portConstraint=eastwest;newEdgeStyle={&quot;edgeStyle&quot;:&quot;elbowEdgeStyle&quot;,&quot;elbow&quot;:&quot;vertical&quot;,&quot;curved&quot;:0,&quot;rounded&quot;:0};" parent="1" vertex="1">
          <mxGeometry x="380" y="119" width="100" height="720" as="geometry" />
        </mxCell>
        <mxCell id="aM9ryv3xv72pqoxQDRHE-6" value="" style="html=1;points=[];perimeter=orthogonalPerimeter;outlineConnect=0;targetShapes=umlLifeline;portConstraint=eastwest;newEdgeStyle={&quot;edgeStyle&quot;:&quot;elbowEdgeStyle&quot;,&quot;elbow&quot;:&quot;vertical&quot;,&quot;curved&quot;:0,&quot;rounded&quot;:0};" parent="aM9ryv3xv72pqoxQDRHE-5" vertex="1">
          <mxGeometry x="45" y="340" width="10" height="356" as="geometry" />
        </mxCell>
        <mxCell id="aM9ryv3xv72pqoxQDRHE-7" value="Search and subscribe to the API" style="html=1;verticalAlign=bottom;endArrow=block;edgeStyle=elbowEdgeStyle;elbow=vertical;curved=0;rounded=0;" parent="1" source="aM9ryv3xv72pqoxQDRHE-2" target="XsU5lfdXcksKyY_UCjnN-2" edge="1">
          <mxGeometry x="-0.6111" y="-1" relative="1" as="geometry">
            <mxPoint x="95" y="225" as="sourcePoint" />
            <Array as="points">
              <mxPoint x="410" y="230" />
              <mxPoint x="590" y="250" />
              <mxPoint x="180" y="225" />
            </Array>
            <mxPoint x="235" y="225" as="targetPoint" />
            <mxPoint as="offset" />
          </mxGeometry>
        </mxCell>
        <mxCell id="XsU5lfdXcksKyY_UCjnN-1" value="One API Hub" style="shape=umlLifeline;perimeter=lifelinePerimeter;whiteSpace=wrap;html=1;container=0;dropTarget=0;collapsible=0;recursiveResize=0;outlineConnect=0;portConstraint=eastwest;newEdgeStyle={&quot;edgeStyle&quot;:&quot;elbowEdgeStyle&quot;,&quot;elbow&quot;:&quot;vertical&quot;,&quot;curved&quot;:0,&quot;rounded&quot;:0};" parent="1" vertex="1">
          <mxGeometry x="550" y="119" width="100" height="720" as="geometry" />
        </mxCell>
        <mxCell id="XsU5lfdXcksKyY_UCjnN-2" value="" style="html=1;points=[];perimeter=orthogonalPerimeter;outlineConnect=0;targetShapes=umlLifeline;portConstraint=eastwest;newEdgeStyle={&quot;edgeStyle&quot;:&quot;elbowEdgeStyle&quot;,&quot;elbow&quot;:&quot;vertical&quot;,&quot;curved&quot;:0,&quot;rounded&quot;:0};" parent="XsU5lfdXcksKyY_UCjnN-1" vertex="1">
          <mxGeometry x="45" y="110" width="10" height="570" as="geometry" />
        </mxCell>
        <mxCell id="AVic4slwQ6wHCXrnZcfe-1" value="" style="html=1;points=[];perimeter=orthogonalPerimeter;outlineConnect=0;targetShapes=umlLifeline;portConstraint=eastwest;newEdgeStyle={&quot;edgeStyle&quot;:&quot;elbowEdgeStyle&quot;,&quot;elbow&quot;:&quot;vertical&quot;,&quot;curved&quot;:0,&quot;rounded&quot;:0};" vertex="1" parent="XsU5lfdXcksKyY_UCjnN-1">
          <mxGeometry x="50" y="261" width="10" height="40" as="geometry" />
        </mxCell>
        <mxCell id="AVic4slwQ6wHCXrnZcfe-2" value="Approve Access&amp;nbsp;" style="html=1;align=left;spacingLeft=2;endArrow=block;rounded=0;edgeStyle=orthogonalEdgeStyle;curved=0;rounded=0;" edge="1" target="AVic4slwQ6wHCXrnZcfe-1" parent="XsU5lfdXcksKyY_UCjnN-1">
          <mxGeometry relative="1" as="geometry">
            <mxPoint x="55" y="241" as="sourcePoint" />
            <Array as="points">
              <mxPoint x="85" y="271" />
            </Array>
          </mxGeometry>
        </mxCell>
        <mxCell id="XsU5lfdXcksKyY_UCjnN-10" value="Generate a new ID token and Access Token" style="html=1;verticalAlign=bottom;endArrow=block;edgeStyle=elbowEdgeStyle;elbow=vertical;curved=0;rounded=0;" parent="1" source="XsU5lfdXcksKyY_UCjnN-2" edge="1">
          <mxGeometry x="-0.2571" relative="1" as="geometry">
            <mxPoint x="600" y="689" as="sourcePoint" />
            <Array as="points">
              <mxPoint x="395" y="689" />
              <mxPoint x="355" y="669" />
              <mxPoint x="85" y="669" />
              <mxPoint x="365" y="669" />
              <mxPoint x="215" y="729" />
              <mxPoint x="235" y="699" />
              <mxPoint x="195" y="669" />
            </Array>
            <mxPoint x="250" y="689" as="targetPoint" />
            <mxPoint as="offset" />
          </mxGeometry>
        </mxCell>
        <mxCell id="XsU5lfdXcksKyY_UCjnN-11" value="Display Generated Token" style="html=1;verticalAlign=bottom;endArrow=block;edgeStyle=elbowEdgeStyle;elbow=vertical;curved=0;rounded=0;" parent="1" edge="1">
          <mxGeometry x="-0.5596" relative="1" as="geometry">
            <mxPoint x="245" y="694" as="sourcePoint" />
            <Array as="points">
              <mxPoint x="450" y="739" />
              <mxPoint x="375" y="694" />
            </Array>
            <mxPoint x="745" y="739" as="targetPoint" />
            <mxPoint as="offset" />
          </mxGeometry>
        </mxCell>
        <mxCell id="XsU5lfdXcksKyY_UCjnN-12" value="SAP Backend" style="shape=umlLifeline;perimeter=lifelinePerimeter;whiteSpace=wrap;html=1;container=0;dropTarget=0;collapsible=0;recursiveResize=0;outlineConnect=0;portConstraint=eastwest;newEdgeStyle={&quot;edgeStyle&quot;:&quot;elbowEdgeStyle&quot;,&quot;elbow&quot;:&quot;vertical&quot;,&quot;curved&quot;:0,&quot;rounded&quot;:0};" parent="1" vertex="1">
          <mxGeometry x="700" y="119" width="100" height="720" as="geometry" />
        </mxCell>
        <mxCell id="XsU5lfdXcksKyY_UCjnN-16" value="" style="html=1;points=[];perimeter=orthogonalPerimeter;outlineConnect=0;targetShapes=umlLifeline;portConstraint=eastwest;newEdgeStyle={&quot;edgeStyle&quot;:&quot;elbowEdgeStyle&quot;,&quot;elbow&quot;:&quot;vertical&quot;,&quot;curved&quot;:0,&quot;rounded&quot;:0};" parent="XsU5lfdXcksKyY_UCjnN-12" vertex="1">
          <mxGeometry x="45" y="110" width="10" height="570" as="geometry" />
        </mxCell>
        <mxCell id="8DKK0phsEl0i5hMAirXq-7" value="API Owner" style="shape=umlLifeline;perimeter=lifelinePerimeter;whiteSpace=wrap;html=1;container=0;dropTarget=0;collapsible=0;recursiveResize=0;outlineConnect=0;portConstraint=eastwest;newEdgeStyle={&quot;edgeStyle&quot;:&quot;elbowEdgeStyle&quot;,&quot;elbow&quot;:&quot;vertical&quot;,&quot;curved&quot;:0,&quot;rounded&quot;:0};" parent="1" vertex="1">
          <mxGeometry x="200" y="120" width="100" height="720" as="geometry" />
        </mxCell>
        <mxCell id="8DKK0phsEl0i5hMAirXq-8" value="" style="html=1;points=[];perimeter=orthogonalPerimeter;outlineConnect=0;targetShapes=umlLifeline;portConstraint=eastwest;newEdgeStyle={&quot;edgeStyle&quot;:&quot;elbowEdgeStyle&quot;,&quot;elbow&quot;:&quot;vertical&quot;,&quot;curved&quot;:0,&quot;rounded&quot;:0};" parent="8DKK0phsEl0i5hMAirXq-7" vertex="1">
          <mxGeometry x="45" y="160" width="10" height="520" as="geometry" />
        </mxCell>
        <mxCell id="8DKK0phsEl0i5hMAirXq-9" value="Notify the API Owner" style="html=1;verticalAlign=bottom;endArrow=block;edgeStyle=elbowEdgeStyle;elbow=vertical;curved=0;rounded=0;" parent="1" source="XsU5lfdXcksKyY_UCjnN-2" target="8DKK0phsEl0i5hMAirXq-8" edge="1">
          <mxGeometry x="-0.6176" relative="1" as="geometry">
            <mxPoint x="615" y="280" as="sourcePoint" />
            <Array as="points">
              <mxPoint x="415" y="280" />
              <mxPoint x="375" y="260" />
              <mxPoint x="105" y="260" />
              <mxPoint x="385" y="260" />
              <mxPoint x="235" y="320" />
              <mxPoint x="255" y="290" />
              <mxPoint x="215" y="260" />
            </Array>
            <mxPoint x="270" y="280" as="targetPoint" />
            <mxPoint as="offset" />
          </mxGeometry>
        </mxCell>
        <mxCell id="8DKK0phsEl0i5hMAirXq-12" value="Approve Subscription" style="html=1;verticalAlign=bottom;endArrow=block;edgeStyle=elbowEdgeStyle;elbow=vertical;curved=0;rounded=0;" parent="1" source="8DKK0phsEl0i5hMAirXq-8" target="XsU5lfdXcksKyY_UCjnN-2" edge="1">
          <mxGeometry x="-0.5588" relative="1" as="geometry">
            <mxPoint x="250" y="350" as="sourcePoint" />
            <Array as="points">
              <mxPoint x="510" y="340" />
              <mxPoint x="590" y="360" />
              <mxPoint x="335" y="350" />
            </Array>
            <mxPoint x="680" y="400" as="targetPoint" />
            <mxPoint as="offset" />
          </mxGeometry>
        </mxCell>
        <mxCell id="AVic4slwQ6wHCXrnZcfe-3" value="Notify the API User" style="html=1;verticalAlign=bottom;endArrow=block;edgeStyle=elbowEdgeStyle;elbow=vertical;curved=0;rounded=0;" edge="1" parent="1" source="XsU5lfdXcksKyY_UCjnN-2" target="aM9ryv3xv72pqoxQDRHE-2">
          <mxGeometry x="-0.78" relative="1" as="geometry">
            <mxPoint x="590" y="440" as="sourcePoint" />
            <Array as="points">
              <mxPoint x="340" y="440" />
              <mxPoint x="260" y="430" />
              <mxPoint x="410" y="440" />
              <mxPoint x="370" y="420" />
              <mxPoint x="100" y="420" />
              <mxPoint x="380" y="420" />
              <mxPoint x="230" y="480" />
              <mxPoint x="250" y="450" />
              <mxPoint x="210" y="420" />
            </Array>
            <mxPoint x="250" y="440" as="targetPoint" />
            <mxPoint as="offset" />
          </mxGeometry>
        </mxCell>
      </root>
    </mxGraphModel>
  </diagram>
</mxfile>
